<mxfile host="Electron" modified="2023-11-14T19:43:30.402Z" agent="Mozilla/5.0 (Windows NT 10.0; Win64; x64) AppleWebKit/537.36 (KHTML, like Gecko) draw.io/22.0.2 Chrome/114.0.5735.289 Electron/25.8.4 Safari/537.36" etag="eUNapLc4iSaNPzLVzkYi" version="22.0.2" type="device">
  <diagram id="R2lEEEUBdFMjLlhIrx00" name="Page-1">
    <mxGraphModel dx="1036" dy="614" grid="1" gridSize="10" guides="1" tooltips="1" connect="1" arrows="1" fold="1" page="1" pageScale="1" pageWidth="850" pageHeight="1100" math="0" shadow="0" extFonts="Permanent Marker^https://fonts.googleapis.com/css?family=Permanent+Marker">
      <root>
        <mxCell id="0" />
        <mxCell id="1" parent="0" />
        <mxCell id="HeBL7DzJXBC-7tBPCECQ-3" style="edgeStyle=orthogonalEdgeStyle;rounded=0;orthogonalLoop=1;jettySize=auto;html=1;exitX=0.5;exitY=1;exitDx=0;exitDy=0;entryX=0.5;entryY=0;entryDx=0;entryDy=0;" edge="1" parent="1" source="HeBL7DzJXBC-7tBPCECQ-1" target="HeBL7DzJXBC-7tBPCECQ-2">
          <mxGeometry relative="1" as="geometry" />
        </mxCell>
        <mxCell id="HeBL7DzJXBC-7tBPCECQ-11" style="edgeStyle=orthogonalEdgeStyle;rounded=0;orthogonalLoop=1;jettySize=auto;html=1;exitX=0.5;exitY=1;exitDx=0;exitDy=0;entryX=0.5;entryY=0;entryDx=0;entryDy=0;" edge="1" parent="1" source="HeBL7DzJXBC-7tBPCECQ-1" target="HeBL7DzJXBC-7tBPCECQ-4">
          <mxGeometry relative="1" as="geometry" />
        </mxCell>
        <mxCell id="HeBL7DzJXBC-7tBPCECQ-1" value="GameController" style="rounded=0;whiteSpace=wrap;html=1;" vertex="1" parent="1">
          <mxGeometry x="360" y="290" width="100" height="20" as="geometry" />
        </mxCell>
        <mxCell id="HeBL7DzJXBC-7tBPCECQ-9" style="edgeStyle=orthogonalEdgeStyle;rounded=0;orthogonalLoop=1;jettySize=auto;html=1;exitX=0.5;exitY=1;exitDx=0;exitDy=0;entryX=0.5;entryY=0;entryDx=0;entryDy=0;" edge="1" parent="1" source="HeBL7DzJXBC-7tBPCECQ-2" target="HeBL7DzJXBC-7tBPCECQ-7">
          <mxGeometry relative="1" as="geometry">
            <mxPoint x="235" y="420" as="targetPoint" />
            <Array as="points">
              <mxPoint x="290" y="400" />
              <mxPoint x="240" y="400" />
            </Array>
          </mxGeometry>
        </mxCell>
        <mxCell id="HeBL7DzJXBC-7tBPCECQ-10" style="edgeStyle=orthogonalEdgeStyle;rounded=0;orthogonalLoop=1;jettySize=auto;html=1;exitX=0.5;exitY=1;exitDx=0;exitDy=0;entryX=0.5;entryY=0;entryDx=0;entryDy=0;" edge="1" parent="1" source="HeBL7DzJXBC-7tBPCECQ-2" target="HeBL7DzJXBC-7tBPCECQ-8">
          <mxGeometry relative="1" as="geometry">
            <Array as="points">
              <mxPoint x="290" y="400" />
              <mxPoint x="350" y="400" />
            </Array>
          </mxGeometry>
        </mxCell>
        <mxCell id="HeBL7DzJXBC-7tBPCECQ-2" value="Person(Spectator)" style="rounded=0;whiteSpace=wrap;html=1;" vertex="1" parent="1">
          <mxGeometry x="240" y="360" width="100" height="20" as="geometry" />
        </mxCell>
        <mxCell id="HeBL7DzJXBC-7tBPCECQ-6" style="edgeStyle=orthogonalEdgeStyle;rounded=0;orthogonalLoop=1;jettySize=auto;html=1;exitX=0.5;exitY=1;exitDx=0;exitDy=0;" edge="1" parent="1" source="HeBL7DzJXBC-7tBPCECQ-4" target="HeBL7DzJXBC-7tBPCECQ-14">
          <mxGeometry relative="1" as="geometry">
            <mxPoint x="500" y="410" as="targetPoint" />
          </mxGeometry>
        </mxCell>
        <mxCell id="HeBL7DzJXBC-7tBPCECQ-13" style="edgeStyle=orthogonalEdgeStyle;rounded=0;orthogonalLoop=1;jettySize=auto;html=1;exitX=1;exitY=0.5;exitDx=0;exitDy=0;entryX=0;entryY=0.5;entryDx=0;entryDy=0;" edge="1" parent="1" source="HeBL7DzJXBC-7tBPCECQ-4" target="HeBL7DzJXBC-7tBPCECQ-12">
          <mxGeometry relative="1" as="geometry" />
        </mxCell>
        <mxCell id="HeBL7DzJXBC-7tBPCECQ-4" value="Board(Decorator)" style="rounded=0;whiteSpace=wrap;html=1;" vertex="1" parent="1">
          <mxGeometry x="440" y="360" width="100" height="20" as="geometry" />
        </mxCell>
        <mxCell id="HeBL7DzJXBC-7tBPCECQ-21" style="edgeStyle=orthogonalEdgeStyle;rounded=0;orthogonalLoop=1;jettySize=auto;html=1;exitX=1;exitY=0.5;exitDx=0;exitDy=0;entryX=0;entryY=0.5;entryDx=0;entryDy=0;" edge="1" parent="1" source="HeBL7DzJXBC-7tBPCECQ-5" target="HeBL7DzJXBC-7tBPCECQ-20">
          <mxGeometry relative="1" as="geometry" />
        </mxCell>
        <mxCell id="HeBL7DzJXBC-7tBPCECQ-5" value="Cell" style="rounded=0;whiteSpace=wrap;html=1;" vertex="1" parent="1">
          <mxGeometry x="460" y="460" width="60" height="20" as="geometry" />
        </mxCell>
        <mxCell id="HeBL7DzJXBC-7tBPCECQ-7" value="Player(Decorator)" style="rounded=0;whiteSpace=wrap;html=1;" vertex="1" parent="1">
          <mxGeometry x="180" y="450" width="100" height="20" as="geometry" />
        </mxCell>
        <mxCell id="HeBL7DzJXBC-7tBPCECQ-8" value="Enemy(Decorator)" style="rounded=0;whiteSpace=wrap;html=1;" vertex="1" parent="1">
          <mxGeometry x="300" y="450" width="100" height="20" as="geometry" />
        </mxCell>
        <mxCell id="HeBL7DzJXBC-7tBPCECQ-12" value="Генерирует ячейки" style="text;html=1;strokeColor=none;fillColor=none;align=center;verticalAlign=middle;whiteSpace=wrap;rounded=0;" vertex="1" parent="1">
          <mxGeometry x="570" y="357.5" width="110" height="25" as="geometry" />
        </mxCell>
        <mxCell id="HeBL7DzJXBC-7tBPCECQ-16" style="edgeStyle=orthogonalEdgeStyle;rounded=0;orthogonalLoop=1;jettySize=auto;html=1;exitX=1;exitY=0.5;exitDx=0;exitDy=0;entryX=0;entryY=0.5;entryDx=0;entryDy=0;" edge="1" parent="1" source="HeBL7DzJXBC-7tBPCECQ-14" target="HeBL7DzJXBC-7tBPCECQ-15">
          <mxGeometry relative="1" as="geometry" />
        </mxCell>
        <mxCell id="HeBL7DzJXBC-7tBPCECQ-18" style="edgeStyle=orthogonalEdgeStyle;rounded=0;orthogonalLoop=1;jettySize=auto;html=1;exitX=0.5;exitY=1;exitDx=0;exitDy=0;entryX=0.5;entryY=0;entryDx=0;entryDy=0;" edge="1" parent="1" source="HeBL7DzJXBC-7tBPCECQ-14" target="HeBL7DzJXBC-7tBPCECQ-5">
          <mxGeometry relative="1" as="geometry" />
        </mxCell>
        <mxCell id="HeBL7DzJXBC-7tBPCECQ-14" value="&amp;nbsp;Cell Manager(Visitor)" style="rounded=0;whiteSpace=wrap;html=1;" vertex="1" parent="1">
          <mxGeometry x="430" y="410" width="120" height="20" as="geometry" />
        </mxCell>
        <mxCell id="HeBL7DzJXBC-7tBPCECQ-15" value="Контролирует количество выбранных ячеек&lt;br&gt;Определяет действия с ячейками" style="text;html=1;strokeColor=none;fillColor=none;align=center;verticalAlign=middle;whiteSpace=wrap;rounded=0;" vertex="1" parent="1">
          <mxGeometry x="580" y="405" width="260" height="30" as="geometry" />
        </mxCell>
        <mxCell id="HeBL7DzJXBC-7tBPCECQ-20" value="Содержит в себе информацию и состояние ячейки" style="text;html=1;strokeColor=none;fillColor=none;align=center;verticalAlign=middle;whiteSpace=wrap;rounded=0;" vertex="1" parent="1">
          <mxGeometry x="560" y="455" width="210" height="30" as="geometry" />
        </mxCell>
      </root>
    </mxGraphModel>
  </diagram>
</mxfile>
